{"title":"Submarine 2011 DVDRip Xvid UnKnOwN","uid":6544522,"size":789006736,"categoryP":"video","categoryS":"movies","magnet":"?xt=urn:btih:bf47f8d5d1b4ace85407d7c2d02aa8085be81019&amp;dn=Submarine+2011+DVDRip+Xvid+UnKnOwN&amp;tr=udp%3A%2F%2Ftracker.openbittorrent.com%3A80&amp;tr=udp%3A%2F%2Fopen.demonii.com%3A1337&amp;tr=udp%3A%2F%2Ftracker.coppersurfer.tk%3A6969&amp;tr=udp%3A%2F%2Fexodus.desync.com%3A6969","seeders":64,"leechers":0,"uploader":"HeroMaster","files":-1,"time":1310806522,"description":"::::: UnKnOwN Presents :::::\n\n\n:::: Submarine 2011 DVDRip ::::\n\n\n::NOTES::\n\n\nEncoded By .......:UnKnOwN\nRuntime ..........:1:57\nIMDb URL .........:http://www.imdb.com/title/tt1440292/\nLanguage .........:English\nFile Size ........:780mb\nRelease Date ......... 2011\nSource ......... R1\nFile Type ......... Single AVI\nPS3 Compatible ....... Sure why not\nGenre ......... Comedy\n\n\n::Video::\n\n\nID: 0\nFormat: MPEG-4 Visual 0\nFormat profile: Advanced Simple@L5\nFormat settings, BVOP: Yes\nFormat settings, QPel: No\nFormat settings, GMC: No warppoints\nFormat settings, Matrix: Custom\nCodec ID: XVID\nCodec ID/Hint: XviD\nDuration: 1h 32mn\nBit rate: 898 Kbps\nWidth: 680 pixels\nHeight: 384 pixels\nDisplay aspect ratio: 16:9\nFrame rate: 23.976 fps\nColor space: YUV\nChroma subsampling: 4:2:0\nBit depth: 8 bits\nScan type: Progressive\nBits/(Pixel*Frame): 0.143\nStream size: 597 MiB (79%)\nWriting library: XviD 1.2.1 (UTC 2008-12-04)\n\n\n::Audio::\n\n\nID: 1\nFormat: AC-3\nFormat/Info: Audio Coding 3\nMode extension: CM (complete main)\nCodec ID: 2000\nDuration: 1h 32mn\nBit rate mode: Constant\nBit rate: 224 Kbps\nChannel(s): 2 channels\nChannel positions: Front: L R\nSampling rate: 48.0 KHz\nBit depth: 16 bits\nStream size: 149 MiB (20%)\nAlignment: Aligned on interleaves\nInterleave, duration: 42 ms (1.00 video frame)\nInterleave, preload duration: 512 ms\n\n\n::SYSPNOSIS::\n\n\n15-year-old Oliver Tate has two objectives: To lose his virginity before his\nnext birthday, and to extinguish the flame between his mother and an ex-lover\nwho has resurfaced in her life.\n\n\n::More Information::\n\n &lt;a href=&quot;\nhttp://www.postimg.com/image/42000/photo-41687.jpg&quot; rel=&quot;nofollow&quot; target=&quot;_NEW&quot;&gt;\nhttp://www.postimg.com/image/42000/photo-41687.jpg&lt;/a&gt;\n\n\n::Screens::\n\n &lt;a href=&quot;\nhttp://www.postimg.com/image/42000/photo-41691.jpg&quot; rel=&quot;nofollow&quot; target=&quot;_NEW&quot;&gt;\nhttp://www.postimg.com/image/42000/photo-41691.jpg&lt;/a&gt;\n &lt;a href=&quot;\nhttp://www.postimg.com/image/42000/photo-41694.jpg&quot; rel=&quot;nofollow&quot; target=&quot;_NEW&quot;&gt;\nhttp://www.postimg.com/image/42000/photo-41694.jpg&lt;/a&gt;\n &lt;a href=&quot;\nhttp://www.postimg.com/image/42000/photo-41696.jpg&quot; rel=&quot;nofollow&quot; target=&quot;_NEW&quot;&gt;\nhttp://www.postimg.com/image/42000/photo-41696.jpg&lt;/a&gt;\n\n\nENJOY!","torrent":{"xt":"urn:btih:bf47f8d5d1b4ace85407d7c2d02aa8085be81019","amp;dn":"Submarine+2011+DVDRip+Xvid+UnKnOwN","amp;tr":["udp%3A%2F%2Ftracker.openbittorrent.com%3A80","udp%3A%2F%2Fopen.demonii.com%3A1337","udp%3A%2F%2Ftracker.coppersurfer.tk%3A6969","udp%3A%2F%2Fexodus.desync.com%3A6969"],"infoHash":"bf47f8d5d1b4ace85407d7c2d02aa8085be81019","infoHashBuffer":{"type":"Buffer","data":[191,71,248,213,209,180,172,232,84,7,215,194,208,42,168,8,91,232,16,25]},"announce":[],"urlList":[]}}